<svg width="51" height="52" viewBox="0 0 51 52" fill="none" xmlns="http://www.w3.org/2000/svg"><path d="M25.442 51.108c14.01 0 25.367-11.357 25.367-25.367S39.452.374 25.442.374.075 11.73.075 25.74s11.357 25.367 25.367 25.367" fill="#5C2D91"/><g fill="#fff"><path opacity=".1" d="M7.86 7.508a25.367 25.367 0 1 0 35.815 35.816z"/><path d="M5.94 33.073a1.07 1.07 0 0 1-.792-.333 1.1 1.1 0 0 1-.325-.792 1.1 1.1 0 0 1 .325-.793 1.06 1.06 0 0 1 .793-.34 1.1 1.1 0 0 1 .792.34 1.1 1.1 0 0 1 .333.793 1.1 1.1 0 0 1-.333.792 1.1 1.1 0 0 1-.792.333m15.752-.198h-2.077L12.187 21.35a4.8 4.8 0 0 1-.46-.904h-.063q.105.988.08 1.982v10.448h-1.689V18.424h2.196l7.23 11.32q.45.705.586.967h.04a15 15 0 0 1-.103-2.124V18.424h1.688zm11.431 0h-7.681V18.424h7.325v1.53H27.17v4.804h5.216v1.522H27.17v5.01h5.961zm11.344-12.921h-4.201v12.921h-1.689V19.954h-4.154v-1.53h10.044z"/></g></svg>