<svg width="60" height="23" viewBox="0 0 60 23" fill="none" xmlns="http://www.w3.org/2000/svg"><g fill="#00ACD7"><path d="M5.767 7.54c-.08 0-.159-.08-.08-.16l.556-.792c.079-.08.158-.158.317-.158h9.988c.08 0 .159.079.08.158l-.476.714c-.08.079-.159.158-.318.158zm-4.202 2.536c-.079 0-.158-.08-.079-.158l.555-.793c.08-.08.159-.159.317-.159h12.763c.08 0 .159.08.159.159l-.238.793c0 .079-.159.158-.238.158zm6.739 2.616c-.08 0-.159-.08-.08-.159l.397-.713c.079-.08.158-.159.317-.159h5.549c.08 0 .158.08.158.16l-.079.633a.17.17 0 0 1-.158.159zm29.013-5.708-4.677 1.19c-.396.079-.475.158-.792-.318-.397-.475-.714-.792-1.348-1.03-1.744-.872-3.488-.634-5.073.396-1.903 1.19-2.854 3.013-2.854 5.312 0 2.22 1.585 4.042 3.805 4.36 1.902.237 3.488-.397 4.756-1.824.238-.317.476-.634.793-1.03h-5.39c-.556 0-.714-.397-.556-.872.397-.872 1.031-2.3 1.427-3.013.08-.158.317-.475.714-.475h10.147c-.08.793-.08 1.506-.159 2.299-.317 1.982-1.03 3.884-2.299 5.47-1.982 2.615-4.598 4.28-7.927 4.756-2.775.396-5.311-.159-7.53-1.823q-3.093-2.379-3.568-6.184c-.397-3.012.555-5.787 2.378-8.165 1.982-2.616 4.598-4.28 7.848-4.835 2.616-.476 5.153-.159 7.372 1.347 1.507.951 2.537 2.3 3.25 3.964.08.317 0 .396-.317.475"/><path d="M46.513 22.443c-2.537-.08-4.836-.793-6.817-2.458-1.665-1.427-2.696-3.25-3.013-5.39-.475-3.171.397-5.946 2.3-8.403 2.06-2.695 4.518-4.043 7.847-4.677 2.854-.476 5.55-.238 7.927 1.427 2.22 1.506 3.568 3.567 3.964 6.262.476 3.805-.634 6.818-3.17 9.434-1.824 1.902-4.123 3.012-6.66 3.567-.872.159-1.664.159-2.378.238m6.659-11.257c0-.396 0-.634-.08-.951-.475-2.775-3.012-4.36-5.707-3.726-2.616.555-4.28 2.22-4.915 4.836-.475 2.14.555 4.36 2.537 5.31 1.506.635 3.092.556 4.518-.158 2.3-1.11 3.488-2.933 3.647-5.311"/></g></svg>