<svg width="53" height="52" viewBox="0 0 53 52" fill="none" xmlns="http://www.w3.org/2000/svg"><path d="M4.048 3.751h45.086v44.393H4.048z" fill="#F5DE19"/><path d="M30.342 30.196a4.57 4.57 0 0 0 1.721 1.863 4.67 4.67 0 0 0 2.465.673c1.755 0 2.878-.864 2.878-2.06 0-1.428-1.153-1.938-3.085-2.77l-1.06-.448c-3.06-1.282-5.088-2.888-5.088-6.284 0-3.129 2.415-5.511 6.204-5.511a6.34 6.34 0 0 1 3.523.777 6.2 6.2 0 0 1 2.502 2.563l-3.312 2.085a2.85 2.85 0 0 0-1.077-1.311 2.9 2.9 0 0 0-1.643-.477 1.87 1.87 0 0 0-1.413.454 1.82 1.82 0 0 0-.614 1.334c0 1.25.788 1.758 2.605 2.537l1.06.447c3.6 1.52 5.636 3.07 5.636 6.552 0 3.756-2.997 5.814-7.02 5.814a8.24 8.24 0 0 1-4.502-1.009 8.07 8.07 0 0 1-3.22-3.257zm-14.967.361c.665 1.162 1.27 2.145 2.726 2.145 1.39 0 2.27-.536 2.27-2.62V15.895h4.237v14.241c0 4.319-2.577 6.285-6.327 6.285a6.66 6.66 0 0 1-3.776-.933 6.5 6.5 0 0 1-2.58-2.872z" fill="#000"/></svg>