<svg width="57" height="52" viewBox="0 0 57 52" fill="none" xmlns="http://www.w3.org/2000/svg"><g fill="#00D8FF"><path d="M28.533 29.663c2.394 0 4.335-1.774 4.335-3.963s-1.941-3.964-4.335-3.964-4.335 1.774-4.335 3.964 1.94 3.963 4.335 3.963"/><path d="M28.533 34.787a53.6 53.6 0 0 1-15.399-1.902 20.3 20.3 0 0 1-6.342-3.104 5.8 5.8 0 0 1-1.757-1.787 5.3 5.3 0 0 1-.78-2.294c0-2.621 3.15-5.19 8.425-6.87a54.2 54.2 0 0 1 15.853-2.137 54 54 0 0 1 15.645 2.099 20.4 20.4 0 0 1 6.135 2.958 5.6 5.6 0 0 1 1.73 1.72c.43.683.693 1.444.767 2.23 0 2.723-3.52 5.484-9.19 7.2a54.3 54.3 0 0 1-15.087 1.887m0-16.198A52.7 52.7 0 0 0 13.36 20.62c-4.855 1.55-7.032 3.668-7.032 5.074 0 1.471 2.34 3.784 7.476 5.39a51.3 51.3 0 0 0 14.728 1.806c4.884.08 9.752-.524 14.436-1.791 5.332-1.616 7.76-3.932 7.76-5.4a3.5 3.5 0 0 0-.59-1.415 3.9 3.9 0 0 0-1.161-1.08 18.3 18.3 0 0 0-5.482-2.622 51.8 51.8 0 0 0-14.963-1.994"/><path d="M18.683 45.468a4.9 4.9 0 0 1-2.317-.52c-2.483-1.31-3.343-5.086-2.3-10.104 1.148-4.802 3.14-9.403 5.895-13.623 2.585-4.235 5.895-8.064 9.803-11.343a20.1 20.1 0 0 1 5.868-3.382 6.35 6.35 0 0 1 2.496-.508c.862 0 1.714.174 2.495.508 2.582 1.36 3.437 5.527 2.232 10.875a43.6 43.6 0 0 1-5.75 12.895c-2.495 4.184-5.7 7.98-9.496 11.245a20 20 0 0 1-6.11 3.47 9.3 9.3 0 0 1-2.816.487m3.075-23.306a42.2 42.2 0 0 0-5.653 13.031c-.96 4.622-.039 7.401 1.3 8.108 1.387.734 4.755.038 8.844-3.228 3.624-3.128 6.683-6.761 9.064-10.765a41.7 41.7 0 0 0 5.516-12.329c1.134-5.033.154-8.116-1.236-8.848a4.38 4.38 0 0 0-3.24.141 18 18 0 0 0-5.22 3.041c-3.733 3.14-6.894 6.806-9.363 10.859z"/><path d="M38.377 45.49c-2.35 0-5.334-1.3-8.441-3.744-3.977-3.308-7.343-7.183-9.966-11.474-2.721-4.163-4.697-8.697-5.851-13.43-.5-2.083-.593-4.23-.274-6.342a5.06 5.06 0 0 1 .764-2.224 5.6 5.6 0 0 1 1.723-1.72c2.578-1.364 6.953.039 11.419 3.663 3.712 3.206 6.864 6.914 9.346 10.994a43 43 0 0 1 5.914 13.138 16.4 16.4 0 0 1 .237 6.574 5.3 5.3 0 0 1-.81 2.284 5.85 5.85 0 0 1-1.78 1.767 4.8 4.8 0 0 1-2.28.513M21.765 29.317c2.517 4.1 5.731 7.809 9.523 10.985 3.9 3.068 6.994 3.728 8.324 3.013 1.387-.738 2.41-3.747 1.356-8.616a41.2 41.2 0 0 0-5.672-12.542c-2.37-3.905-5.378-7.455-8.922-10.528-4.204-3.412-7.613-4.174-9.002-3.439a3.8 3.8 0 0 0-1.043 1.176c-.256.453-.405.95-.44 1.46a14.8 14.8 0 0 0 .266 5.652 41.5 41.5 0 0 0 5.611 12.842z"/></g></svg>