<svg width="46" height="46" viewBox="0 0 46 46" fill="none" xmlns="http://www.w3.org/2000/svg"><path d="M33.545 29.655 10.972 43.058 40.2 41.081l2.25-29.478z" fill="url(#a)"/><path d="m40.248 41.054-2.512-17.339-6.843 9.037z" fill="url(#b)"/><path d="M40.282 41.054 21.877 39.61l-10.808 3.41z" fill="url(#c)"/><path d="m11.095 43.024 4.597-15.062-10.117 2.16z" fill="url(#d)"/><path d="m30.89 32.805-4.236-16.57L14.553 27.58z" fill="url(#e)"/><path d="M41.49 16.464 30.053 7.117l-3.187 10.308z" fill="url(#f)"/><path d="m36.139 3.785-6.732 3.72-4.246-3.77z" fill="url(#g)"/><path d="m2.913 35.178 2.824-5.143-2.284-6.125z" fill="url(#h)"/><path d="m3.3 23.716 2.296 6.51 9.972-2.237 11.384-10.575 3.214-10.21-5.06-3.573-8.6 3.22c-2.712 2.514-7.97 7.506-8.16 7.597-.188.092-3.471 6.304-5.046 9.266z" fill="#fff"/><path d="M11.359 12.021C17.23 6.2 24.799 2.758 27.707 5.694s-.175 10.055-6.047 15.877c-5.873 5.822-13.351 9.447-16.255 6.515s.08-10.248 5.954-16.065" fill="url(#i)"/><path d="m11.095 43.019 4.562-15.11 15.15 4.868c-5.478 5.137-11.57 9.478-19.712 10.242" fill="url(#j)"/><path d="m26.972 17.377 3.888 15.406c4.575-4.811 8.683-9.984 10.694-16.38l-14.584.976z" fill="url(#k)"/><path d="M41.514 16.48c1.553-4.697 1.916-11.437-5.423-12.687L30.068 7.12z" fill="url(#l)"/><path d="M2.913 35.11c.216 7.752 5.81 7.868 8.19 7.935l-5.507-12.85z" fill="#9E1209"/><path d="M26.993 17.402a6087 6087 0 0 0 10.746 6.581 24.8 24.8 0 0 0 3.698-7.544z" fill="url(#m)"/><path d="m15.651 27.908 6.099 11.765a39.4 39.4 0 0 0 9.016-6.89l-15.11-4.875z" fill="url(#n)"/><path d="m5.578 30.209-.864 10.29c1.63 2.226 3.873 2.42 6.225 2.246-1.701-4.236-5.103-12.709-5.366-12.536z" fill="url(#o)"/><path d="M30.033 7.146 42.148 8.84c-.646-2.74-2.632-4.507-6.016-5.06l-6.1 3.36z" fill="url(#p)"/><defs><linearGradient id="a" x1="37.547" y1="46.629" x2="29.246" y2="31.734" gradientUnits="userSpaceOnUse"><stop stop-color="#FB7655"/><stop offset=".41" stop-color="#E42B1E"/><stop offset=".99" stop-color="#900"/><stop offset="1" stop-color="#900"/></linearGradient><linearGradient id="b" x1="41.794" y1="34.261" x2="30.088" y2="31.956" gradientUnits="userSpaceOnUse"><stop stop-color="#871101"/><stop offset=".99" stop-color="#911209"/><stop offset="1" stop-color="#911209"/></linearGradient><linearGradient id="c" x1="33.085" y1="46.919" x2="32.932" y2="39.464" gradientUnits="userSpaceOnUse"><stop stop-color="#871101"/><stop offset=".99" stop-color="#911209"/><stop offset="1" stop-color="#911209"/></linearGradient><linearGradient id="d" x1="10.661" y1="29.061" x2="14.127" y2="39.279" gradientUnits="userSpaceOnUse"><stop stop-color="#fff"/><stop offset=".23" stop-color="#E57252"/><stop offset=".46" stop-color="#DE3B20"/><stop offset=".99" stop-color="#A60003"/><stop offset="1" stop-color="#A60003"/></linearGradient><linearGradient id="e" x1="22.194" y1="18.851" x2="22.806" y2="29.861" gradientUnits="userSpaceOnUse"><stop stop-color="#fff"/><stop offset=".23" stop-color="#E4714E"/><stop offset=".56" stop-color="#BE1A0D"/><stop offset=".99" stop-color="#A80D00"/><stop offset="1" stop-color="#A80D00"/></linearGradient><linearGradient id="f" x1="32.387" y1="8.54" x2="33.255" y2="16.512" gradientUnits="userSpaceOnUse"><stop stop-color="#fff"/><stop offset=".18" stop-color="#E46342"/><stop offset=".4" stop-color="#C82410"/><stop offset=".99" stop-color="#A80D00"/><stop offset="1" stop-color="#A80D00"/></linearGradient><linearGradient id="g" x1="26.515" y1="6.079" x2="27.808" y2=".554" gradientUnits="userSpaceOnUse"><stop stop-color="#fff"/><stop offset=".54" stop-color="#C81F11"/><stop offset=".99" stop-color="#BF0905"/><stop offset="1" stop-color="#BF0905"/></linearGradient><linearGradient id="h" x1="3.792" y1="26.372" x2="7.229" y2="28.573" gradientUnits="userSpaceOnUse"><stop stop-color="#fff"/><stop offset=".31" stop-color="#DE4024"/><stop offset=".99" stop-color="#BF190B"/><stop offset="1" stop-color="#BF190B"/></linearGradient><linearGradient id="i" x1="-.597" y1="34.498" x2="29.954" y2="2.786" gradientUnits="userSpaceOnUse"><stop stop-color="#BD0012"/><stop offset=".07" stop-color="#fff"/><stop offset=".17" stop-color="#fff"/><stop offset=".27" stop-color="#C82F1C"/><stop offset=".33" stop-color="#820C01"/><stop offset=".46" stop-color="#A31601"/><stop offset=".72" stop-color="#B31301"/><stop offset=".99" stop-color="#E82609"/><stop offset="1" stop-color="#E82609"/></linearGradient><linearGradient id="j" x1="22.625" y1="37.978" x2="13.886" y2="34.251" gradientUnits="userSpaceOnUse"><stop stop-color="#8C0C01"/><stop offset=".54" stop-color="#990C00"/><stop offset=".99" stop-color="#A80D0E"/><stop offset="1" stop-color="#A80D0E"/></linearGradient><linearGradient id="k" x1="38.614" y1="26.529" x2="29.67" y2="20.236" gradientUnits="userSpaceOnUse"><stop stop-color="#7E110B"/><stop offset=".99" stop-color="#9E0C00"/><stop offset="1" stop-color="#9E0C00"/></linearGradient><linearGradient id="l" x1="41.549" y1="13.073" x2="37.274" y2="8.795" gradientUnits="userSpaceOnUse"><stop stop-color="#79130D"/><stop offset=".99" stop-color="#9E120B"/><stop offset="1" stop-color="#9E120B"/></linearGradient><linearGradient id="o" x1="8.107" y1="42.965" x2=".646" y2="36.73" gradientUnits="userSpaceOnUse"><stop stop-color="#8B2114"/><stop offset=".43" stop-color="#9E100A"/><stop offset=".99" stop-color="#B3100C"/><stop offset="1" stop-color="#B3100C"/></linearGradient><linearGradient id="p" x1="33.926" y1="5.634" x2="36.036" y2="10.986" gradientUnits="userSpaceOnUse"><stop stop-color="#B31000"/><stop offset=".44" stop-color="#910F08"/><stop offset=".99" stop-color="#791C12"/><stop offset="1" stop-color="#791C12"/></linearGradient><radialGradient id="m" cx="0" cy="0" r="1" gradientUnits="userSpaceOnUse" gradientTransform="matrix(9.99246 0 0 5.22143 31.708 19.348)"><stop stop-color="#A80D00"/><stop offset=".99" stop-color="#7E0E08"/><stop offset="1" stop-color="#7E0E08"/></radialGradient><radialGradient id="n" cx="0" cy="0" r="1" gradientUnits="userSpaceOnUse" gradientTransform="matrix(13.3454 0 0 10.3888 17.868 32.648)"><stop stop-color="#A30C00"/><stop offset=".99" stop-color="#800E08"/><stop offset="1" stop-color="#800E08"/></radialGradient></defs></svg>