<svg width="48" height="48" viewBox="0 0 48 48" fill="none" xmlns="http://www.w3.org/2000/svg">
<g id="wordpress" clip-path="url(#clip0_1_429)">
<path id="Vector" d="M4.1659 24.3442C4.1659 32.2853 8.78062 39.1472 15.4723 42.3995L5.90277 16.1798C4.7556 18.7486 4.16373 21.5308 4.1659 24.3442ZM37.7702 23.3318C37.7702 25.0492 37.1102 27.0422 36.2426 29.817L34.2419 36.5037L26.9921 14.9384C28.1992 14.875 29.2882 14.7471 29.2882 14.7471C30.3689 14.6192 30.2418 13.0309 29.1596 13.0946C29.1596 13.0946 25.9111 13.3492 23.8131 13.3492C21.8418 13.3492 18.5288 13.0946 18.5288 13.0946C17.4478 13.0309 17.321 14.6838 18.4021 14.7471C18.4021 14.7471 19.4255 14.875 20.5058 14.9384L23.6318 23.5017L19.2411 36.6687L11.9356 14.9388C13.1449 14.8754 14.2321 14.7475 14.2321 14.7475C15.312 14.6196 15.1845 13.0313 14.1031 13.095C14.1031 13.095 10.8549 13.3496 8.75657 13.3496C8.38019 13.3496 7.93624 13.3401 7.46557 13.326C11.0527 7.87945 17.2187 4.28356 24.2273 4.28356C29.4501 4.28356 34.2053 6.28 37.7748 9.54989C37.6878 9.54493 37.6034 9.53386 37.5145 9.53386C35.5444 9.53386 34.1461 11.2505 34.1461 13.0946C34.1461 14.7471 35.0989 16.1465 36.1158 17.799C36.8797 19.1355 37.7702 20.8525 37.7702 23.3318ZM24.5792 26.099L30.7464 42.9931C30.7855 43.0894 30.8333 43.1819 30.8892 43.2695C28.8038 44.0024 26.5634 44.4067 24.2273 44.4067C22.3088 44.4067 20.4003 44.1313 18.5601 43.589L24.5792 26.099ZM41.8303 14.7193C43.4478 17.6691 44.2932 20.98 44.2879 24.3442C44.2879 31.7455 40.2763 38.207 34.3122 41.6849L40.44 23.9678C41.5852 21.1063 41.9654 18.8179 41.9654 16.7821C41.9654 16.0446 41.9166 15.3583 41.8303 14.7193ZM24.2273 0.959473C37.1213 0.959473 47.6135 11.4498 47.6139 24.3442C47.6139 37.2405 37.1213 47.7304 24.2273 47.7304C11.3325 47.7304 0.841812 37.2401 0.841812 24.3442C0.841812 11.4498 11.3329 0.959473 24.2273 0.959473ZM24.2273 46.6581C36.5296 46.6581 46.5393 36.648 46.5393 24.3442C46.5393 12.0414 36.53 2.03213 24.2273 2.03213C11.9238 2.03213 1.91409 12.0414 1.91409 24.3442C1.91409 36.648 11.9242 46.6581 24.2273 46.6581Z" fill="#00749A"/>
</g>
<defs>
<clipPath id="clip0_1_429">
<rect width="46.7709" height="46.7709" fill="white" transform="translate(0.841812 0.959473)"/>
</clipPath>
</defs>
</svg>
